<svg width="25" height="25" viewBox="0 0 25 25" fill="none" xmlns="http://www.w3.org/2000/svg">
<path fill-rule="evenodd" clip-rule="evenodd" d="M12.1513 21.0863C17.1217 21.0504 21.122 16.992 21.0861 12.0216C21.0502 7.05112 16.9918 3.05086 12.0214 3.08673C7.05095 3.12259 3.05069 7.18099 3.08656 12.1514C3.12242 17.1219 7.18083 21.1221 12.1513 21.0863ZM23.086 12.0071C23.1299 18.0821 18.2407 23.0424 12.1657 23.0862C6.09072 23.13 1.13044 18.2408 1.08661 12.1659C1.04278 6.09088 5.93198 1.13061 12.007 1.08678C18.0819 1.04294 23.0422 5.93215 23.086 12.0071Z" fill="#A0211E"/>
<path d="M11.4132 16.7986C11.8065 17.1863 12.4397 17.1817 12.8274 16.7884L16.7984 12.7596C17.1861 12.3663 17.1815 11.7331 16.7882 11.3454C16.3949 10.9577 15.7617 10.9623 15.374 11.3556L13.0977 13.665L13.0574 8.07938C13.0535 7.52711 12.6025 7.08264 12.0502 7.08662C11.498 7.09061 11.0535 7.54154 11.0575 8.09381L11.0978 13.6795L8.78841 11.4032C8.39508 11.0155 7.76193 11.02 7.37424 11.4134C6.98654 11.8067 6.99111 12.4398 7.38444 12.8275L11.4132 16.7986Z" fill="#A0211E"/>
</svg>
