<svg width="26" height="23" viewBox="0 0 26 23" fill="none" xmlns="http://www.w3.org/2000/svg">
<path d="M24.8114 16.6983L23.624 16.6722C23.6237 16.6808 23.6236 16.6896 23.6236 16.6983H24.8114ZM24.8114 19.8449H23.6236V19.8491L24.8114 19.8449ZM22.222 21.9426L22.0937 22.9853C22.1008 22.9861 22.1079 22.9867 22.1151 22.9872L22.222 21.9426ZM11.971 18.7226L12.6173 17.8425L12.6081 17.8373L11.971 18.7226ZM4.84409 12.4293L5.84667 11.8667L5.84101 11.8591L4.84409 12.4293ZM1.19746 3.33553L0.0144619 3.42994C0.0150202 3.43539 0.0156272 3.44085 0.0162829 3.44629L1.19746 3.33553ZM3.56124 1.04898V0.000101272L3.56012 0.000102209L3.56124 1.04898ZM7.12471 1.04898V2.0979L7.1364 2.09781L7.12471 1.04898ZM9.50037 2.85304L10.678 2.71589L10.6765 2.70625L9.50037 2.85304ZM10.3318 5.80039L9.21897 6.16709L9.21998 6.16946L10.3318 5.80039ZM9.79732 8.01353L10.6373 8.7552L10.6419 8.75103L9.79732 8.01353ZM8.28878 9.3456L7.44887 8.60394C7.07076 8.9378 6.9919 9.45361 7.25622 9.86406L8.28878 9.3456ZM15.4157 15.6389L14.8286 16.5507C15.2934 16.7841 15.8776 16.7144 16.2556 16.3806L15.4157 15.6389ZM16.9243 14.3068L16.0891 13.561L16.0844 13.5652L16.9243 14.3068ZM19.4306 13.8348L19.0126 14.8166L19.0153 14.8175L19.4306 13.8348ZM22.7684 14.569L22.9343 13.5303L22.9237 13.5292L22.7684 14.569ZM23.6236 16.6983V19.8449H25.9993V16.6983H23.6236ZM23.6236 19.8491C23.6243 19.9952 23.5905 20.1397 23.5242 20.2736L25.7009 21.1139C25.8996 20.7125 26.0013 20.2788 25.9993 19.8406L23.6236 19.8491ZM23.5242 20.2736C23.4579 20.4074 23.3607 20.5275 23.2388 20.6263L24.8448 22.172C25.2104 21.8758 25.502 21.5154 25.7009 21.1139L23.5242 20.2736ZM23.2388 20.6263C23.1169 20.725 22.973 20.8002 22.8164 20.847L23.5774 22.8342C24.0475 22.6938 24.4792 22.4682 24.8448 22.172L23.2388 20.6263ZM22.8164 20.847C22.6597 20.8938 22.4936 20.9112 22.3289 20.898L22.1151 22.9872C22.6093 23.0267 23.1074 22.9745 23.5774 22.8342L22.8164 20.847ZM22.3503 20.8999C18.8798 20.5669 15.5463 19.5197 12.6173 17.8426L11.3247 19.6026C14.5654 21.4583 18.2538 22.617 22.0937 22.9853L22.3503 20.8999ZM12.6081 17.8373C9.88529 16.3095 7.57682 14.2711 5.84664 11.8668L3.84155 12.9918C5.75879 15.6561 8.31682 17.9149 11.334 19.6078L12.6081 17.8373ZM5.84101 11.8591C3.935 9.26098 2.74885 6.30302 2.37865 3.22478L0.0162829 3.44629C0.42588 6.85219 1.73828 10.125 3.84717 12.9996L5.84101 11.8591ZM2.38047 3.24113C2.36563 3.09611 2.38515 2.94995 2.43778 2.81195L0.186401 2.14237C0.0284925 2.55637 -0.0300629 2.99486 0.0144619 3.42994L2.38047 3.24113ZM2.43778 2.81195C2.49043 2.67395 2.57502 2.54714 2.6862 2.4396L0.93164 1.02531C0.598107 1.34795 0.344308 1.72837 0.186401 2.14237L2.43778 2.81195ZM2.6862 2.4396C2.79737 2.33205 2.9327 2.24612 3.08354 2.18729L2.12367 0.268387C1.67113 0.444894 1.26517 0.702672 0.93164 1.02531L2.6862 2.4396ZM3.08354 2.18729C3.23438 2.12845 3.39745 2.098 3.56235 2.09785L3.56012 0.000102209C3.0654 0.000513577 2.57621 0.0918809 2.12367 0.268387L3.08354 2.18729ZM3.56124 2.09785H7.12471V0.000101772H3.56124V2.09785ZM7.1364 2.09781C7.42464 2.0953 7.70406 2.18543 7.9226 2.35139L9.47162 0.760902C8.816 0.26302 7.97772 -0.00736231 7.11303 0.000152536L7.1364 2.09781ZM7.9226 2.35139C8.14115 2.51735 8.28389 2.74782 8.32423 2.99985L10.6765 2.70625C10.5555 1.95019 10.1273 1.25878 9.47162 0.760902L7.9226 2.35139ZM8.32274 2.9902C8.48486 4.07562 8.78552 5.14136 9.21898 6.16709L11.4447 5.4337C11.0739 4.5562 10.8167 3.64446 10.678 2.7159L8.32274 2.9902ZM9.21998 6.16946C9.29988 6.35717 9.31718 6.56116 9.26981 6.75729L11.5932 7.19483C11.7353 6.60647 11.6834 5.99446 11.4437 5.43133L9.21998 6.16946ZM9.26981 6.75729C9.22245 6.95341 9.1124 7.13343 8.95272 7.27602L10.6419 8.75103C11.121 8.32327 11.4511 7.7832 11.5932 7.19483L9.26981 6.75729ZM8.9574 7.27186L7.44887 8.60394L9.12871 10.0873L10.6372 8.75519L8.9574 7.27186ZM7.25622 9.86406C9.05284 12.6541 11.669 14.9642 14.8286 16.5507L16.0029 14.7271C13.2149 13.3273 10.9066 11.289 9.32136 8.82715L7.25622 9.86406ZM16.2556 16.3806L17.7642 15.0485L16.0844 13.5652L14.5758 14.8972L16.2556 16.3806ZM17.7594 15.0526C17.921 14.9116 18.1248 14.8145 18.3469 14.7726L17.8514 12.721C17.1851 12.8465 16.5735 13.138 16.0891 13.561L17.7594 15.0526ZM18.3469 14.7726C18.5691 14.7308 18.8001 14.7461 19.0126 14.8166L19.8486 12.853C19.2108 12.6413 18.5177 12.5955 17.8514 12.721L18.3469 14.7726ZM19.0153 14.8175C20.1769 15.2003 21.3838 15.4657 22.613 15.6089L22.9237 13.5292C21.8722 13.4067 20.8396 13.1796 19.8458 12.8521L19.0153 14.8175ZM22.6024 15.6076C22.891 15.6435 23.1544 15.7719 23.3428 15.9681L25.1553 14.612C24.5903 14.0232 23.7998 13.6383 22.9343 13.5304L22.6024 15.6076ZM23.3428 15.9681C23.5311 16.1645 23.6312 16.4151 23.624 16.6722L25.9989 16.7243C26.0205 15.9526 25.7204 15.201 25.1553 14.612L23.3428 15.9681Z" fill="#111111"/>
</svg>
