<svg width="23" height="24" viewBox="0 0 23 24" fill="none" xmlns="http://www.w3.org/2000/svg">
<path d="M19.0001 23.9C18.9001 23.9 18.8001 23.9 18.7001 23.9C15.5001 23.5 12.3001 22.4 9.6001 20.7C7.1001 19.1 4.9001 16.9 3.3001 14.4C1.5001 11.7 0.400098 8.50002 0.100098 5.30002C0.100098 4.50002 0.300098 3.70002 0.800098 3.10002C1.3001 2.50002 2.0001 2.10002 2.8001 2.00002C2.9001 2.00002 3.0001 2.00002 3.1001 2.00002H6.1001C7.6001 2.00002 8.9001 3.10002 9.1001 4.60002C9.2001 5.50002 9.4001 6.40002 9.7001 7.20002C10.1001 8.30002 9.8001 9.50002 9.0001 10.4L8.3001 11.1C9.5001 12.9 11.0001 14.5 12.9001 15.7L13.6001 15C14.4001 14.2 15.7001 13.9 16.8001 14.3C17.6001 14.6 18.5001 14.8 19.4001 14.9C20.9001 15.1 22.0001 16.4 22.0001 17.9V20.9C22.0001 21.7 21.7001 22.5 21.1001 23C20.5001 23.5 19.8001 23.9 19.0001 23.9ZM6.1001 4.00002H3.1001C2.8001 4.00002 2.5001 4.20002 2.3001 4.40002C2.2001 4.60002 2.1001 4.80002 2.1001 5.10002C2.4001 8.00002 3.4001 10.8 5.0001 13.3C6.5001 15.6 8.4001 17.6 10.7001 19C13.2001 20.6 16.0001 21.6 18.9001 21.9C19.3001 21.9 19.5001 21.8 19.7001 21.6C19.9001 21.4 20.0001 21.2 20.0001 20.9V17.9C20.0001 17.4 19.6001 17 19.1001 16.9C18.1001 16.8 17.1001 16.5 16.1001 16.1C15.7001 16 15.3001 16 15.0001 16.3L13.7001 17.6C13.4001 17.9 12.9001 18 12.5001 17.8C9.8001 16.3 7.6001 14.1 6.1001 11.4C6.0001 11 6.1001 10.5 6.4001 10.2L7.7001 8.90002C7.9001 8.70002 8.0001 8.20002 7.9001 7.90002C7.5001 6.90002 7.3001 5.90002 7.1001 4.90002C7.1001 4.40002 6.6001 4.00002 6.1001 4.00002ZM18.0001 11C17.5001 11 17.1001 10.7 17.0001 10.2C16.7001 8.60002 15.4001 7.40002 13.8001 7.00002C13.3001 6.90002 12.9001 6.40002 13.0001 5.80002C13.1001 5.30002 13.6001 4.90002 14.2001 5.00002C16.6001 5.50002 18.5001 7.30002 18.9001 9.70002C19.0001 10.2 18.7001 10.8 18.1001 10.9C18.1001 10.9 18.1001 11 18.0001 11ZM22.0001 10.9C21.5001 10.9 21.1001 10.5 21.0001 10C20.6001 6.30002 17.7001 3.40002 13.9001 2.90002C13.4001 2.80002 13.0001 2.30002 13.0001 1.80002C13.0001 1.30002 13.6001 0.900024 14.1001 0.900024C18.8001 1.40002 22.4001 5.00002 22.9001 9.70002C23.0001 10.2 22.6001 10.7 22.0001 10.8C22.1001 10.9 22.0001 10.9 22.0001 10.9Z" fill="white"/>
</svg>
