<svg width="25" height="25" fill="none" xmlns="http://www.w3.org/2000/svg"><path fill-rule="evenodd" clip-rule="evenodd" d="M12.151 21.086a9 9 0 1 0-.13-18 9 9 0 0 0 .13 18zm10.935-9.079c.044 6.075-4.845 11.035-10.92 11.08C6.09 23.13 1.13 18.24 1.086 12.165 1.044 6.09 5.933 1.13 12.008 1.086c6.075-.043 11.035 4.846 11.079 10.921z" fill="#A0211E"/><path d="M11.413 16.799a1 1 0 0 0 1.414-.01l3.971-4.03a1 1 0 0 0-1.424-1.403l-2.276 2.309-.04-5.586a1 1 0 1 0-2 .015l.04 5.586-2.31-2.277a1 1 0 1 0-1.404 1.425l4.03 3.97z" fill="#A0211E"/></svg>