<svg width="26" height="23" fill="none" xmlns="http://www.w3.org/2000/svg"><path d="M24.811 16.698l-1.187-.026v.026h1.187zm0 3.147h-1.187v.004l1.187-.004zm-2.589 2.098l-.128 1.042a.5.5 0 0 0 .021.002l.107-1.044zm-10.251-3.22l.646-.88-.009-.006-.637.886zm-7.127-6.294l1.003-.562-.006-.008-.997.57zM1.197 3.336L.014 3.43l.002.016 1.181-.11zm2.364-2.287V0v1.05zm3.564 0v1.049h.011l-.011-1.049zM9.5 2.853l1.178-.137-.002-.01-1.176.147zm.832 2.947l-1.113.367.001.002 1.112-.369zm-.535 2.214l.84.741.005-.004-.845-.737zM8.29 9.346l-.84-.742c-.378.334-.457.85-.193 1.26l1.033-.518zm7.127 6.293l-.587.912a1.31 1.31 0 0 0 1.427-.17l-.84-.742zm1.508-1.332l-.835-.746-.005.004.84.742zm2.507-.472l-.418.982h.002l.416-.982zm3.337.734l.166-1.039h-.01l-.156 1.039zm.856 2.13v3.146H26v-3.147h-2.375zm0 3.15c0 .146-.034.29-.1.425l2.177.84c.199-.402.3-.835.298-1.273l-2.375.008zm-.1.425a1.064 1.064 0 0 1-.285.352l1.606 1.546a3.19 3.19 0 0 0 .856-1.058l-2.177-.84zm-.285.352a1.231 1.231 0 0 1-.423.221l.761 1.987a3.69 3.69 0 0 0 1.268-.662l-1.606-1.546zm-.423.221a1.335 1.335 0 0 1-.487.051l-.214 2.09c.494.039.992-.014 1.462-.154l-.76-1.987zm-.466.053c-3.47-.333-6.804-1.38-9.733-3.057l-1.292 1.76c3.24 1.855 6.929 3.014 10.769 3.382l.256-2.085zm-9.742-3.063c-2.723-1.527-5.031-3.566-6.761-5.97l-2.005 1.125c1.917 2.664 4.475 4.923 7.492 6.616l1.274-1.77zM5.841 11.86C3.935 9.261 2.749 6.303 2.379 3.225l-2.363.221C.426 6.852 1.738 10.125 3.847 13l1.994-1.14zm-3.46-8.618a.934.934 0 0 1 .057-.43L.186 2.143A2.803 2.803 0 0 0 .014 3.43l2.366-.19zm.057-.43a1.03 1.03 0 0 1 .248-.371L.932 1.025a3.09 3.09 0 0 0-.746 1.117l2.252.67zm.248-.371c.111-.108.247-.194.398-.253l-.96-1.92a3.586 3.586 0 0 0-1.192.757L2.686 2.44zm.398-.253a1.33 1.33 0 0 1 .478-.09L3.56 0a3.97 3.97 0 0 0-1.436.268l.96 1.92zm.477-.09h3.564V0H3.56v2.098zm3.575 0a1.29 1.29 0 0 1 .787.254L9.472.761A3.857 3.857 0 0 0 7.113 0l.023 2.097zm.787.254c.218.166.36.397.401.649l2.353-.294c-.121-.756-.55-1.447-1.205-1.945l-1.55 1.59zm.4.64c.162 1.085.463 2.15.896 3.176l2.226-.733a11.269 11.269 0 0 1-.767-2.718l-2.355.274zM9.22 6.17c.08.188.097.392.05.588l2.323.438a2.8 2.8 0 0 0-.15-1.764L9.22 6.17zm.05.588a1.019 1.019 0 0 1-.317.519l1.689 1.475a3.05 3.05 0 0 0 .951-1.556L9.27 6.757zm-.313.515L7.45 8.604l1.68 1.483 1.508-1.332-1.68-1.483zm-1.7 2.592c1.796 2.79 4.412 5.1 7.572 6.687l1.174-1.824c-2.788-1.4-5.096-3.438-6.682-5.9L7.256 9.864zm8.999 6.517l1.508-1.332-1.68-1.484-1.508 1.332 1.68 1.484zm1.503-1.328a1.24 1.24 0 0 1 .588-.28l-.496-2.052a3.727 3.727 0 0 0-1.762.84l1.67 1.492zm.588-.28c.222-.042.453-.027.666.044l.836-1.964a4.01 4.01 0 0 0-1.998-.132l.496 2.052zm.668.045c1.162.382 2.369.648 3.598.79l.31-2.079a15.611 15.611 0 0 1-3.077-.677l-.83 1.966zm3.587.79c.289.035.552.164.74.36l1.813-1.356c-.565-.589-1.355-.974-2.22-1.082l-.333 2.078zm.74.36a.977.977 0 0 1 .282.704l2.375.052c.021-.771-.279-1.523-.844-2.112l-1.812 1.356z" fill="#111"/></svg>